<svg 
 xmlns="http://www.w3.org/2000/svg"
 xmlns:xlink="http://www.w3.org/1999/xlink"
 width="436px" height="512px">
  <style>
    path {
      fill: black;
    }
    @media (prefers-color-scheme: dark) {
      path {
        fill: white;
      }
    }
 </style>
<path fill-rule="evenodd"
 d="M404.750,296.922 C393.891,296.922 384.125,302.359 375.453,313.203 C350.125,345.750 327.875,368.891 308.719,382.641 C289.547,396.391 265.141,403.250 235.485,403.250 C194.250,403.250 164.953,386.625 147.594,353.344 C233.672,332.375 294.610,303.984 330.422,268.172 C366.219,232.375 384.125,189.516 384.125,139.594 C384.125,96.922 371.453,63.109 346.141,38.156 C320.828,13.203 287.188,0.719 245.250,0.719 C198.219,0.719 156.094,13.391 118.844,38.703 C81.594,64.016 52.469,98.203 31.500,141.234 C10.532,184.266 0.047,230.734 0.047,280.641 C0.047,351.547 19.203,407.781 57.547,449.375 C95.875,490.969 149.766,511.750 219.203,511.750 C264.766,511.750 304.016,503.078 336.922,485.719 C369.828,468.359 396.422,444.125 416.672,413.016 C428.969,394.219 435.125,371.797 435.125,345.750 C435.125,330.562 432.407,318.641 426.985,309.953 C421.547,301.266 414.141,296.922 404.750,296.922 L404.750,296.922 ZM226.797,107.047 C239.813,107.047 250.125,111.219 257.719,119.531 C265.313,127.844 269.125,138.875 269.125,152.625 C269.125,179.391 256.828,202.891 232.235,223.141 C207.641,243.391 174.000,258.594 131.328,268.719 L131.328,266.547 C131.328,222.422 140.547,184.812 158.985,153.703 C177.422,122.609 200.032,107.047 226.797,107.047 L226.797,107.047 Z"/>
</svg>